<?xml version="1.0" encoding="UTF-8"?>
<!DOCTYPE svg PUBLIC "-//W3C//DTD SVG 1.1//EN" "http://www.w3.org/Graphics/SVG/1.1/DTD/svg11.dtd">
<svg xmlns="http://www.w3.org/2000/svg" version="1.1" width="1080px" height="1080px" style="shape-rendering:geometricPrecision; text-rendering:geometricPrecision; image-rendering:optimizeQuality; fill-rule:evenodd; clip-rule:evenodd" xmlns:xlink="http://www.w3.org/1999/xlink">
<g><path style="opacity:1" fill="#f9f9f9" d="M -0.5,-0.5 C 359.5,-0.5 719.5,-0.5 1079.5,-0.5C 1079.5,359.5 1079.5,719.5 1079.5,1079.5C 719.5,1079.5 359.5,1079.5 -0.5,1079.5C -0.5,719.5 -0.5,359.5 -0.5,-0.5 Z"/></g>
<g><path style="opacity:1" fill="#7a7a7a" d="M 1032.5,46.5 C 703.833,46.5 375.167,46.5 46.5,46.5C 46.5,375.167 46.5,703.833 46.5,1032.5C 375.167,1032.5 703.833,1032.5 1032.5,1032.5C 703.667,1033.5 374.667,1033.83 45.5,1033.5C 45.5,704.167 45.5,374.833 45.5,45.5C 374.667,45.1668 703.667,45.5002 1032.5,46.5 Z"/></g>
<g><path style="opacity:1" fill="#0a0a0a" d="M 1032.5,46.5 C 1032.5,375.167 1032.5,703.833 1032.5,1032.5C 703.833,1032.5 375.167,1032.5 46.5,1032.5C 46.5,703.833 46.5,375.167 46.5,46.5C 375.167,46.5 703.833,46.5 1032.5,46.5 Z"/></g>
<g><path style="opacity:1" fill="#bcbcbc" d="M 276.5,265.5 C 292.163,264.833 307.996,264.5 324,264.5C 340.181,264.501 356.014,265.167 371.5,266.5C 339.907,265.508 308.24,265.175 276.5,265.5 Z"/></g>
<g><path style="opacity:1" fill="#f9f9f9" d="M 956.5,265.5 C 956.5,446.833 956.5,628.167 956.5,809.5C 927.833,809.5 899.167,809.5 870.5,809.5C 777.577,693.399 684.41,577.399 591,461.5C 590.5,577.833 590.333,694.166 590.5,810.5C 549.833,810.5 509.167,810.5 468.5,810.5C 452.527,765.083 435.861,719.916 418.5,675C 354.831,674.167 291.164,674.333 227.5,675.5C 210.565,720.306 194.232,765.306 178.5,810.5C 141.832,810.667 105.165,810.5 68.5,810C 137.933,628.532 207.267,447.032 276.5,265.5C 308.24,265.175 339.907,265.508 371.5,266.5C 408.984,364.808 446.484,463.141 484,561.5C 484.5,462.501 484.667,363.501 484.5,264.5C 512.175,264.167 539.841,264.5 567.5,265.5C 661.857,384.023 756.024,502.689 850,621.5C 850.5,502.834 850.667,384.167 850.5,265.5C 885.833,265.5 921.167,265.5 956.5,265.5 Z"/></g>
<g><path style="opacity:1" fill="#0b0b0b" d="M 398.5,598.5 C 347.833,599.833 297.167,599.833 246.5,598.5C 271.648,527.555 297.481,456.888 324,386.5C 349.337,457.013 374.171,527.68 398.5,598.5 Z"/></g>
<g><path style="opacity:1" fill="#bdbdbd" d="M 246.5,598.5 C 297.167,599.833 347.833,599.833 398.5,598.5C 399.043,598.56 399.376,598.893 399.5,599.5C 348.167,600.833 296.833,600.833 245.5,599.5C 245.624,598.893 245.957,598.56 246.5,598.5 Z"/></g>
<g><path style="opacity:1" fill="#9f9f9f" d="M 956.5,265.5 C 957.5,446.999 957.833,628.666 957.5,810.5C 928.329,810.831 899.329,810.498 870.5,809.5C 899.167,809.5 927.833,809.5 956.5,809.5C 956.5,628.167 956.5,446.833 956.5,265.5 Z"/></g>
</svg>
